<svg width="32" height="32" viewBox="0 0 32 32" fill="none" xmlns="http://www.w3.org/2000/svg">
<path fill-rule="evenodd" clip-rule="evenodd" d="M16.0066 5.78926C22.1094 6.29821 23.8801 8.84294 25.9987 12.0557C27.4041 14.1869 32.0759 14.1869 31.9434 10.9423C31.7536 6.29821 25.809 2.7076e-06 16.0066 0C2.05076 -3.85463e-06 -5.00003 16.5 4.50001 27C4.92185 27.3343 5.30768 22.3528 5 21.692C1.01581 13.1353 7.5 5.07985 16.0066 5.78926ZM9.20818 14.1869C8.14345 15.3318 6.80502 23.3479 6.17261 28.4374C7.47961 29.6673 11.371 32.0891 16.4809 31.9364C21.5908 31.7837 25.3557 28.9039 26.5995 27.4831C25.809 22.7117 24.1647 14.5368 23.3426 14.1869C22.4834 13.8212 20.9921 15.6713 20.7813 16.7952C20.7045 16.7686 20.6169 16.7368 20.5189 16.7012C19.7567 16.4241 18.3637 15.9179 16.4809 15.8728C14.356 15.8219 12.4757 16.5196 11.9908 16.7952C11.7378 15.3956 10.1252 13.2008 9.20818 14.1869ZM19.0489 19.5944C19.8544 19.5944 20.3578 20.2872 20.4921 21.0704C20.6264 21.8535 20.3914 22.7271 19.7201 22.8776C19.0489 23.0283 18.344 22.4861 18.1762 21.5222C18.0084 20.5583 18.2433 19.5944 19.0489 19.5944ZM13.4167 19.9125C12.6747 19.9125 12.2111 20.552 12.0874 21.2749C11.9637 21.9979 12.1801 22.8042 12.7984 22.9432C13.4167 23.0822 14.0659 22.5818 14.2205 21.692C14.375 20.8023 14.1586 19.9125 13.4167 19.9125ZM17.9251 23.8238C17.767 23.5693 15.2374 23.6011 14.8263 24.0783C14.5101 24.5554 15.6801 25.6369 16.5022 25.6051C17.3244 25.5733 18.0832 24.0782 17.9251 23.8238Z" fill="white"/>
</svg>
