<svg width="16" height="17" viewBox="0 0 16 17" fill="none" xmlns="http://www.w3.org/2000/svg">
<path fill-rule="evenodd" clip-rule="evenodd" d="M1.5 0C0.671573 0 0 0.671573 0 1.5V5.75C0 6.57843 0.671573 7.25 1.5 7.25H5.75C6.57843 7.25 7.25 6.57843 7.25 5.75V1.5C7.25 0.671573 6.57843 0 5.75 0H1.5ZM10.25 0C9.42157 0 8.75 0.671573 8.75 1.5V5.75C8.75 6.57843 9.42157 7.25 10.25 7.25H14.5C15.3284 7.25 16 6.57843 16 5.75V1.5C16 0.671573 15.3284 0 14.5 0H10.25ZM0 10.3C0 9.47156 0.671573 8.79999 1.5 8.79999H5.75C6.57843 8.79999 7.25 9.47156 7.25 10.3V14.55C7.25 15.3784 6.57843 16.05 5.75 16.05H1.5C0.671573 16.05 0 15.3784 0 14.55V10.3ZM10.25 8.79999C9.42157 8.79999 8.75 9.47156 8.75 10.3V14.55C8.75 15.3784 9.42157 16.05 10.25 16.05H14.5C15.3284 16.05 16 15.3784 16 14.55V10.3C16 9.47156 15.3284 8.79999 14.5 8.79999H10.25Z" fill="#364141"/>
</svg>
