<svg width="27" height="27" viewBox="0 0 27 27" fill="none" xmlns="http://www.w3.org/2000/svg">
<path fill-rule="evenodd" clip-rule="evenodd" d="M21.8333 11.6667C21.8333 17.2816 17.2816 21.8333 11.6667 21.8333C6.05177 21.8333 1.5 17.2816 1.5 11.6667C1.5 6.05177 6.05177 1.5 11.6667 1.5C17.2816 1.5 21.8333 6.05177 21.8333 11.6667ZM19.369 20.4296C17.3142 22.2371 14.6184 23.3333 11.6667 23.3333C5.22334 23.3333 0 18.11 0 11.6667C0 5.22334 5.22334 0 11.6667 0C18.11 0 23.3333 5.22334 23.3333 11.6667C23.3333 14.6184 22.2371 17.3142 20.4296 19.369L26.3637 25.303L25.303 26.3637L19.369 20.4296Z" fill="#364141"/>
</svg>
